<svg xmlns:xlink="http://www.w3.org/1999/xlink" version="1.1" class="highcharts-root" style="font-family:&quot;lucida grande&quot;, &quot;lucida sans unicode&quot;, arial, helvetica, sans-serif;font-size:12px;" xmlns="http://www.w3.org/2000/svg" width="600" height="400"><desc>Created with Highcharts 5.0.6</desc><defs><clipPath id="highcharts-4uqq5i4-48"><rect x="0" y="0" width="529" height="299" fill="none"></rect></clipPath></defs><rect fill="#ffffff" class="highcharts-background" x="0" y="0" width="600" height="400" rx="0" ry="0"></rect><rect fill="none" class="highcharts-plot-background" x="61" y="46" width="529" height="299"></rect><g class="highcharts-plot-bands-0"><path fill="#e6c3c3" class="highcharts-plot-band " d="M 61 270.5 L 590 270.5 590 46.5 61 46.5 z"></path><path fill="#e6dcc3" class="highcharts-plot-band " d="M 61 326.5 L 590 326.5 590 270.5 61 270.5 z"></path><path fill="#c3e6c3" class="highcharts-plot-band " d="M 61 345.5 L 590 345.5 590 326.5 61 326.5 z"></path></g><g class="highcharts-grid highcharts-xaxis-grid "><path fill="none" class="highcharts-grid-line" d="M 63.5 46 L 63.5 345" opacity="1"></path><path fill="none" class="highcharts-grid-line" d="M 173.5 46 L 173.5 345" opacity="1"></path><path fill="none" class="highcharts-grid-line" d="M 283.5 46 L 283.5 345" opacity="1"></path><path fill="none" class="highcharts-grid-line" d="M 393.5 46 L 393.5 345" opacity="1"></path><path fill="none" class="highcharts-grid-line" d="M 503.5 46 L 503.5 345" opacity="1"></path></g><g class="highcharts-grid highcharts-yaxis-grid "><path fill="none" stroke="#e6e6e6" stroke-width="1" class="highcharts-grid-line" d="M 61 345.5 L 590 345.5" opacity="1"></path><path fill="none" stroke="#e6e6e6" stroke-width="1" class="highcharts-grid-line" d="M 61 270.5 L 590 270.5" opacity="1"></path><path fill="none" stroke="#e6e6e6" stroke-width="1" class="highcharts-grid-line" d="M 61 196.5 L 590 196.5" opacity="1"></path><path fill="none" stroke="#e6e6e6" stroke-width="1" class="highcharts-grid-line" d="M 61 121.5 L 590 121.5" opacity="1"></path><path fill="none" stroke="#e6e6e6" stroke-width="1" class="highcharts-grid-line" d="M 61 45.5 L 590 45.5" opacity="1"></path></g><rect fill="none" class="highcharts-plot-border" x="61" y="46" width="529" height="299"></rect><g class="highcharts-axis highcharts-xaxis "><path fill="none" class="highcharts-tick" stroke="#ccd6eb" stroke-width="1" d="M 63.5 345 L 63.5 355" opacity="1"></path><path fill="none" class="highcharts-tick" stroke="#ccd6eb" stroke-width="1" d="M 173.5 345 L 173.5 355" opacity="1"></path><path fill="none" class="highcharts-tick" stroke="#ccd6eb" stroke-width="1" d="M 283.5 345 L 283.5 355" opacity="1"></path><path fill="none" class="highcharts-tick" stroke="#ccd6eb" stroke-width="1" d="M 393.5 345 L 393.5 355" opacity="1"></path><path fill="none" class="highcharts-tick" stroke="#ccd6eb" stroke-width="1" d="M 503.5 345 L 503.5 355" opacity="1"></path><text x="325.5" text-anchor="middle" transform="translate(0,0)" class="highcharts-axis-title" style="color:#666666;fill:#666666;" y="383"><tspan>Position (bp)</tspan></text><path fill="none" class="highcharts-axis-line" stroke="#ccd6eb" stroke-width="1" d="M 61 345.5 L 590 345.5"></path></g><g class="highcharts-axis highcharts-yaxis "><text x="23.766666412353516" text-anchor="middle" transform="translate(0,0) rotate(270 23.766666412353516 195.5)" class="highcharts-axis-title" style="color:#666666;fill:#666666;" y="195.5"><tspan>% of Sequences</tspan></text><path fill="none" class="highcharts-axis-line" d="M 61 46 L 61 345"></path></g><g class="highcharts-series-group"><g class="highcharts-series highcharts-series-0 highcharts-line-series highcharts-color-0 " transform="translate(61,46) scale(1 1)" width="299" height="529" clip-path="url(#highcharts-4uqq5i4-48)"><path fill="none" d="M 5.1862745098039 298.89535 L 7.3838484546361 298.8948516666667 L 9.5814223994683 298.89435333333336 L 11.7789963443 298.8941041666667 L 13.976570289133 298.89335666666665 L 16.174144233965 298.8928583333333 L 18.371718178797 298.89260916666666 L 20.569292123629 298.89211083333333 L 22.766866068461 298.8916125 L 29.359587902958 298.88932016666666 L 40.347457627119 298.88633016666665 L 51.335327351279 298.8802505 L 62.32319707544 298.864254 L 73.311066799601 298.8209488333333 L 84.298936523762 298.74171383333334 L 95.286806247923 298.6223131666667 L 106.27467597208 298.4425145 L 117.26254569624 298.16060733333336 L 128.25041542041 297.7557115 L 139.23828514457 297.204804 L 150.22615486873 296.45187216666665 L 161.21402459289 295.472996 L 172.20189431705 294.1967643333333 L 183.18976404121 292.60100133333333 L 194.17763376537 290.67608916666666 L 205.16550348953 288.3916295 L 216.15337321369 285.6308628333333 L 227.14124293785 282.4415295 L 238.12911266201 278.66236883333335 L 249.11698238617 274.30957666666666 L 260.10485211034 269.4840655 L 271.0927218345 264.3194385 L 282.08059155866 258.7245505 L 293.06846128282 252.54162916666667 L 304.05633100698 245.9868515 L 315.04420073114 239.15265833333333 L 326.0320704553 232.22114066666668 L 337.01994017946 225.0407055 L 348.00780990362 217.64394383333334 L 358.99567962778 210.20562116666667 L 369.98354935194 202.7526475 L 380.97141907611 195.02494266666667 L 391.95928880027 187.24286966666665 L 402.94715852443 179.46857066666666 L 413.93502824859 171.90392050000003 L 424.92289797275 164.634184 L 435.91076769691 157.73117100000002 L 446.89863742107 150.8723103333333 L 457.88650714523 143.846209 L 468.87437686939 136.88733283333335 L 479.86224659355 130.08149483333332 L 490.85011631771 123.68424033333335 L 501.83798604187 117.60995566666665 L 512.82585576604 111.43301433333335 L 523.8137254902 105.43258266666666" class="highcharts-graph" stroke="#7cb5ec" stroke-width="2" stroke-linejoin="round" stroke-linecap="round"></path></g><g class="highcharts-markers highcharts-series-0 highcharts-line-series highcharts-color-0 " transform="translate(61,46) scale(1 1)" width="299" height="529" clip-path="none"></g><g class="highcharts-series highcharts-series-1 highcharts-line-series highcharts-color-1 " transform="translate(61,46) scale(1 1)" width="299" height="529" clip-path="url(#highcharts-4uqq5i4-48)"><path fill="none" d="M 5.1862745098039 296.03890333333334 L 7.3838484546361 294.22372416666667 L 9.5814223994683 292.46485666666666 L 11.7789963443 290.5126358333333 L 13.976570289133 288.42736 L 16.174144233965 286.08893083333334 L 18.371718178797 283.7163658333333 L 20.569292123629 281.2299316666667 L 22.766866068461 278.90371166666665 L 29.359587902958 272.7246275 L 40.347457627119 263.1722751666667 L 51.335327351279 253.68809483333334 L 62.32319707544 244.59196666666668 L 73.311066799601 235.75492200000002 L 84.298936523762 227.02815850000002 L 95.286806247923 218.37185933333333 L 106.27467597208 209.864213 L 117.26254569624 201.38073583333335 L 128.25041542041 193.0722235 L 139.23828514457 184.89253033333335 L 150.22615486873 176.97291733333333 L 161.21402459289 169.16004733333332 L 172.20189431705 161.48292333333333 L 183.18976404121 153.92106383333333 L 194.17763376537 146.67629383333332 L 205.16550348953 139.6775011666667 L 216.15337321369 132.91840683333334 L 227.14124293785 126.38226683333335 L 238.12911266201 119.9667235 L 249.11698238617 113.62029900000002 L 260.10485211034 107.5637051666667 L 271.0927218345 101.78622783333333 L 282.08059155866 96.2808903333333 L 293.06846128282 90.91877383333332 L 304.05633100698 85.745127 L 315.04420073114 80.80853733333336 L 326.0320704553 76.21260833333332 L 337.01994017946 71.82214216666665 L 348.00780990362 67.56238883333336 L 358.99567962778 63.54582216666665 L 369.98354935194 59.75918650000003 L 380.97141907611 56.037483666666674 L 391.95928880027 52.50529700000004 L 402.94715852443 49.16362316666667 L 413.93502824859 45.977229999999935 L 424.92289797275 43.078175833333376 L 435.91076769691 40.439650333333304 L 446.89863742107 37.93846550000001 L 457.88650714523 35.49673183333334 L 468.87437686939 33.14898383333332 L 479.86224659355 30.955071333333365 L 490.85011631771 28.921721833333322 L 501.83798604187 27.032141499999966 L 512.82585576604 25.200617000000022 L 523.8137254902 23.43023800000003" class="highcharts-graph" stroke="#434348" stroke-width="2" stroke-linejoin="round" stroke-linecap="round"></path></g><g class="highcharts-markers highcharts-series-1 highcharts-line-series highcharts-color-1 " transform="translate(61,46) scale(1 1)" width="299" height="529" clip-path="none"></g><g class="highcharts-series highcharts-series-2 highcharts-line-series highcharts-color-2 " transform="translate(61,46) scale(1 1)" width="299" height="529" clip-path="url(#highcharts-4uqq5i4-48)"><path fill="none" d="M 5.1862745098039 298.9020775 L 7.3838484546361 298.9015791666667 L 9.5814223994683 298.9010808333333 L 11.7789963443 298.90083166666665 L 13.976570289133 298.90008416666666 L 16.174144233965 298.89958583333333 L 18.371718178797 298.89933666666667 L 20.569292123629 298.89883833333334 L 22.766866068461 298.89834 L 29.359587902958 298.8960476666667 L 40.347457627119 298.893257 L 51.335327351279 298.8873766666667 L 62.32319707544 298.8716791666667 L 73.311066799601 298.82772616666665 L 84.298936523762 298.7480925 L 95.286806247923 298.62958883333334 L 106.27467597208 298.4507868333333 L 117.26254569624 298.1690291666667 L 128.25041542041 297.7626383333333 L 139.23828514457 297.2099866666667 L 150.22615486873 296.45904816666666 L 161.21402459289 295.4839095 L 172.20189431705 294.21146516666664 L 183.18976404121 292.605287 L 194.17763376537 290.6245615 L 205.16550348953 288.24756133333335 L 216.15337321369 285.3750185 L 227.14124293785 282.05651716666665 L 238.12911266201 278.23813766666666 L 249.11698238617 273.949182 L 260.10485211034 269.1326408333333 L 271.0927218345 263.859726 L 282.08059155866 258.1540585 L 293.06846128282 252.01668483333333 L 304.05633100698 245.53541133333334 L 315.04420073114 238.82181483333335 L 326.0320704553 231.92458249999999 L 337.01994017946 224.79492750000003 L 348.00780990362 217.5026165 L 358.99567962778 210.119858 L 369.98354935194 202.76694966666668 L 380.97141907611 195.32852733333334 L 391.95928880027 187.92239700000002 L 402.94715852443 180.51970516666665 L 413.93502824859 173.31315733333335 L 424.92289797275 166.3063415 L 435.91076769691 159.440853 L 446.89863742107 152.67737333333335 L 457.88650714523 146.07924066666666 L 468.87437686939 139.7272846666667 L 479.86224659355 133.65484383333336 L 490.85011631771 127.81268283333335 L 501.83798604187 122.28741200000002 L 512.82585576604 117.01036100000002 L 523.8137254902 112.05593100000002" class="highcharts-graph" stroke="#90ed7d" stroke-width="2" stroke-linejoin="round" stroke-linecap="round"></path></g><g class="highcharts-markers highcharts-series-2 highcharts-line-series highcharts-color-2 " transform="translate(61,46) scale(1 1)" width="299" height="529" clip-path="none"></g><g class="highcharts-series highcharts-series-3 highcharts-line-series highcharts-color-3 " transform="translate(61,46) scale(1 1)" width="299" height="529" clip-path="url(#highcharts-4uqq5i4-48)"><path fill="none" d="M 5.1862745098039 296.367305 L 7.3838484546361 294.7053633333333 L 9.5814223994683 293.1505633333333 L 11.7789963443 291.3468458333333 L 13.976570289133 289.3799241666667 L 16.174144233965 287.13019833333334 L 18.371718178797 284.8966683333333 L 20.569292123629 282.5961125 L 22.766866068461 280.46897666666666 L 29.359587902958 274.8009333333333 L 40.347457627119 265.845983 L 51.335327351279 256.8048708333333 L 62.32319707544 248.2152985 L 73.311066799601 239.82196983333333 L 84.298936523762 231.62951933333335 L 95.286806247923 223.4638791666667 L 106.27467597208 215.53275466666668 L 117.26254569624 207.698556 L 128.25041542041 200.0481426666667 L 139.23828514457 192.44063583333335 L 150.22615486873 185.04761166666668 L 161.21402459289 177.70870649999998 L 172.20189431705 170.56335399999998 L 183.18976404121 163.63298250000003 L 194.17763376537 156.90867183333333 L 205.16550348953 150.31990783333336 L 216.15337321369 143.8792485 L 227.14124293785 137.70415099999997 L 238.12911266201 131.67845383333335 L 249.11698238617 125.88064449999999 L 260.10485211034 120.35387866666667 L 271.0927218345 114.97741016666669 L 282.08059155866 109.7953415 L 293.06846128282 104.84066233333334 L 304.05633100698 100.14875433333336 L 315.04420073114 95.68677733333337 L 326.0320704553 91.47092716666671 L 337.01994017946 87.44474266666666 L 348.00780990362 83.63134649999998 L 358.99567962778 79.98279899999997 L 369.98354935194 76.52027933333335 L 380.97141907611 73.25654483333335 L 391.95928880027 70.15317399999998 L 402.94715852443 67.24973450000002 L 413.93502824859 64.5549471666667 L 424.92289797275 62.02939383333333 L 435.91076769691 59.619304333333304 L 446.89863742107 57.37685416666665 L 457.88650714523 55.28923616666671 L 468.87437686939 53.365619666666646 L 479.86224659355 51.57421099999996 L 490.85011631771 49.94645500000004 L 501.83798604187 48.45534200000003 L 512.82585576604 47.09613783333333 L 523.8137254902 45.85952366666666" class="highcharts-graph" stroke="#f7a35c" stroke-width="2" stroke-linejoin="round" stroke-linecap="round"></path></g><g class="highcharts-markers highcharts-series-3 highcharts-line-series highcharts-color-3 " transform="translate(61,46) scale(1 1)" width="299" height="529" clip-path="none"></g></g><text x="330" text-anchor="middle" class="highcharts-title" style="color:#333333;font-size:18px;fill:#333333;width:536px;" y="24"><tspan>FastQC: Adapter Content</tspan></text><g class="highcharts-axis-labels highcharts-xaxis-labels "><text x="63.98870056497175" style="color:#666666;cursor:default;font-size:11px;fill:#666666;width:122px;text-overflow:clip;" text-anchor="middle" transform="translate(0,0)" y="364" opacity="1"><tspan>0</tspan></text><text x="173.86739780658024" style="color:#666666;cursor:default;font-size:11px;fill:#666666;width:122px;text-overflow:clip;" text-anchor="middle" transform="translate(0,0)" y="364" opacity="1"><tspan>50</tspan></text><text x="283.74609504818875" style="color:#666666;cursor:default;font-size:11px;fill:#666666;width:122px;text-overflow:clip;" text-anchor="middle" transform="translate(0,0)" y="364" opacity="1"><tspan>100</tspan></text><text x="393.6247922897973" style="color:#666666;cursor:default;font-size:11px;fill:#666666;width:122px;text-overflow:clip;" text-anchor="middle" transform="translate(0,0)" y="364" opacity="1"><tspan>150</tspan></text><text x="503.5034895314058" style="color:#666666;cursor:default;font-size:11px;fill:#666666;width:122px;text-overflow:clip;" text-anchor="middle" transform="translate(0,0)" y="364" opacity="1"><tspan>200</tspan></text></g><g class="highcharts-axis-labels highcharts-yaxis-labels "><text x="46" style="color:#666666;cursor:default;font-size:11px;fill:#666666;width:188px;text-overflow:clip;" text-anchor="end" transform="translate(0,0)" y="350" opacity="1"><tspan>0</tspan></text><text x="46" style="color:#666666;cursor:default;font-size:11px;fill:#666666;width:188px;text-overflow:clip;" text-anchor="end" transform="translate(0,0)" y="275" opacity="1"><tspan>20</tspan></text><text x="46" style="color:#666666;cursor:default;font-size:11px;fill:#666666;width:188px;text-overflow:clip;" text-anchor="end" transform="translate(0,0)" y="200" opacity="1"><tspan>40</tspan></text><text x="46" style="color:#666666;cursor:default;font-size:11px;fill:#666666;width:188px;text-overflow:clip;" text-anchor="end" transform="translate(0,0)" y="125" opacity="1"><tspan>60</tspan></text><text x="46" style="color:#666666;cursor:default;font-size:11px;fill:#666666;width:188px;text-overflow:clip;" text-anchor="end" transform="translate(0,0)" y="51" opacity="1"><tspan>80</tspan></text></g><text x="590" class="highcharts-credits" text-anchor="end" style="cursor:pointer;color:#999999;font-size:9px;fill:#999999;" y="395"><tspan>Created with MultiQC</tspan></text></svg>