<svg xmlns:xlink="http://www.w3.org/1999/xlink" version="1.1" class="highcharts-root" style="font-family:&quot;lucida grande&quot;, &quot;lucida sans unicode&quot;, arial, helvetica, sans-serif;font-size:12px;" xmlns="http://www.w3.org/2000/svg" width="600" height="400"><desc>Created with Highcharts 5.0.6</desc><defs><clipPath id="highcharts-b0lpd72-46"><rect x="0" y="0" width="535" height="299" fill="none"></rect></clipPath></defs><rect fill="#ffffff" class="highcharts-background" x="0" y="0" width="600" height="400" rx="0" ry="0"></rect><rect fill="none" class="highcharts-plot-background" x="55" y="46" width="535" height="299"></rect><g class="highcharts-plot-bands-0"><path fill="#e6c3c3" class="highcharts-plot-band " d="M 55 46.5 L 590 46.5 590 46.5 55 46.5 z"></path><path fill="#e6dcc3" class="highcharts-plot-band " d="M 55 96.5 L 590 96.5 590 46.5 55 46.5 z"></path><path fill="#c3e6c3" class="highcharts-plot-band " d="M 55 345.5 L 590 345.5 590 96.5 55 96.5 z"></path></g><g class="highcharts-grid highcharts-xaxis-grid "><path fill="none" class="highcharts-grid-line" d="M 57.5 46 L 57.5 345" opacity="1"></path><path fill="none" class="highcharts-grid-line" d="M 168.5 46 L 168.5 345" opacity="1"></path><path fill="none" class="highcharts-grid-line" d="M 279.5 46 L 279.5 345" opacity="1"></path><path fill="none" class="highcharts-grid-line" d="M 390.5 46 L 390.5 345" opacity="1"></path><path fill="none" class="highcharts-grid-line" d="M 502.5 46 L 502.5 345" opacity="1"></path></g><g class="highcharts-grid highcharts-yaxis-grid "><path fill="none" stroke="#e6e6e6" stroke-width="1" class="highcharts-grid-line" d="M 55 345.5 L 590 345.5" opacity="1"></path><path fill="none" stroke="#e6e6e6" stroke-width="1" class="highcharts-grid-line" d="M 55 295.5 L 590 295.5" opacity="1"></path><path fill="none" stroke="#e6e6e6" stroke-width="1" class="highcharts-grid-line" d="M 55 245.5 L 590 245.5" opacity="1"></path><path fill="none" stroke="#e6e6e6" stroke-width="1" class="highcharts-grid-line" d="M 55 196.5 L 590 196.5" opacity="1"></path><path fill="none" stroke="#e6e6e6" stroke-width="1" class="highcharts-grid-line" d="M 55 146.5 L 590 146.5" opacity="1"></path><path fill="none" stroke="#e6e6e6" stroke-width="1" class="highcharts-grid-line" d="M 55 96.5 L 590 96.5" opacity="1"></path><path fill="none" stroke="#e6e6e6" stroke-width="1" class="highcharts-grid-line" d="M 55 45.5 L 590 45.5" opacity="1"></path></g><rect fill="none" class="highcharts-plot-border" x="55" y="46" width="535" height="299"></rect><g class="highcharts-axis highcharts-xaxis "><path fill="none" class="highcharts-tick" stroke="#ccd6eb" stroke-width="1" d="M 57.5 345 L 57.5 355" opacity="1"></path><path fill="none" class="highcharts-tick" stroke="#ccd6eb" stroke-width="1" d="M 168.5 345 L 168.5 355" opacity="1"></path><path fill="none" class="highcharts-tick" stroke="#ccd6eb" stroke-width="1" d="M 279.5 345 L 279.5 355" opacity="1"></path><path fill="none" class="highcharts-tick" stroke="#ccd6eb" stroke-width="1" d="M 390.5 345 L 390.5 355" opacity="1"></path><path fill="none" class="highcharts-tick" stroke="#ccd6eb" stroke-width="1" d="M 502.5 345 L 502.5 355" opacity="1"></path><text x="322.5" text-anchor="middle" transform="translate(0,0)" class="highcharts-axis-title" style="color:#666666;fill:#666666;" y="383"><tspan>Position (bp)</tspan></text><path fill="none" class="highcharts-axis-line" stroke="#ccd6eb" stroke-width="1" d="M 55 345.5 L 590 345.5"></path></g><g class="highcharts-axis highcharts-yaxis "><text x="23.883333206176758" text-anchor="middle" transform="translate(0,0) rotate(270 23.883333206176758 195.5)" class="highcharts-axis-title" style="color:#666666;fill:#666666;" y="195.5"><tspan>% of Sequences</tspan></text><path fill="none" class="highcharts-axis-line" d="M 55 46 L 55 345"></path></g><g class="highcharts-series-group"><g class="highcharts-series highcharts-series-0 highcharts-line-series highcharts-color-0 " transform="translate(55,46) scale(1 1)" width="299" height="535" clip-path="url(#highcharts-b0lpd72-46)"><path fill="none" d="M 5.2450980392157 298.87191993535635 L 7.4675972083749 298.87191993535635 L 9.6900963775341 298.87191993535635 L 11.912595546693 298.87191993535635 L 14.135094715852 298.87191993535635 L 16.357593885012 298.87191993535635 L 18.580093054171 298.87191993535635 L 20.80259222333 298.87191993535635 L 23.025091392489 298.87191993535635 L 29.692588899967 298.87191993535635 L 40.805084745763 298.86726247846025 L 51.917580591559 298.8626050215641 L 63.030076437355 298.82767409484313 L 74.142572283151 298.8043868103625 L 85.255068128946 298.7787707974337 L 96.367563974742 298.7391824138166 L 107.48005982054 298.6902791164072 L 118.59255566633 298.647197640118 L 129.70505151213 298.5785001509 L 140.81754735793 298.5237750323705 L 151.93004320372 298.4678855496169 L 163.04253904952 298.3945306035028 L 174.15503489531 298.2815872737716 L 185.26753074111 298.1476853880078 L 196.38002658691 297.9916605819874 L 207.4925224327 297.7809106574374 L 218.6050182785 297.56783200443937 L 229.71751412429 297.29886386868776 L 240.83000997009 296.9821567997508 L 251.94250581589 296.5536707653066 L 263.05500166168 295.87368205847133 L 274.16749750748 294.7896589658966 L 285.27999335327 294.17487465560714 L 296.39248919907 293.3842713474887 L 307.50498504487 292.5214774574803 L 318.61748089066 291.7122443217773 L 329.72997673646 290.7784242141028 L 340.84247258225 289.75727678962585 L 351.95496842805 288.80948431126296 L 363.06746427385 287.8558700117799 L 374.17996011964 286.8801327920403 L 385.29245596544 285.76117877274453 L 396.40495181123 284.62010183319217 L 407.51744765703 282.4310970920101 L 418.62994350282 281.4332369520138 L 429.74243934862 280.62051072363874 L 440.85493519442 279.86949579913744 L 451.96743104021 279.1091659608439 L 463.07992688601 278.3604797647906 L 474.1924227318 277.58152009891256 L 485.3049185776 276.91783249121374 L 496.4174144234 276.2855827175638 L 507.52991026919 275.90250688785693 L 518.64240611499 275.6824420495147 L 529.75490196078 275.44724047626" class="highcharts-graph" stroke="#7cb5ec" stroke-width="2" stroke-linejoin="round" stroke-linecap="round"></path></g><g class="highcharts-markers highcharts-series-0 highcharts-line-series highcharts-color-0 " transform="translate(55,46) scale(1 1)" width="299" height="535" clip-path="none"></g><g class="highcharts-series highcharts-series-1 highcharts-line-series highcharts-color-1 " transform="translate(55,46) scale(1 1)" width="299" height="535" clip-path="url(#highcharts-b0lpd72-46)"><path fill="none" d="M 5.2450980392157 298.99417817887985 L 7.4675972083749 298.930138146558 L 9.6900963775341 298.84281082975554 L 11.912595546693 298.7787707974337 L 14.135094715852 298.70890894399173 L 16.357593885012 298.6332252694296 L 18.580093054171 298.5575415948675 L 20.80259222333 298.42363970910367 L 23.025091392489 298.27227235997935 L 29.692588899967 297.7844037501095 L 40.805084745763 297.0031153557834 L 51.917580591559 296.2672371661945 L 63.030076437355 295.67690450460975 L 74.142572283151 295.0725994723366 L 85.255068128946 294.5649366706582 L 96.367563974742 293.98508328708976 L 107.48005982054 293.29927275913434 L 118.59255566633 292.6507218863479 L 129.70505151213 291.9660757226165 L 140.81754735793 291.28026519466107 L 151.93004320372 290.3126785244896 L 163.04253904952 288.7605810138536 L 174.15503489531 286.96396701617067 L 185.26753074111 285.50268991500917 L 196.38002658691 284.48619994742836 L 207.4925224327 283.1786189238393 L 218.6050182785 282.0480212623032 L 229.71751412429 281.3144718011624 L 240.83000997009 280.63914055122325 L 251.94250581589 279.7588811978543 L 263.05500166168 279.0614270276585 L 274.16749750748 278.52698384882734 L 285.27999335327 278.0519232454219 L 296.39248919907 277.3894000019471 L 307.50498504487 276.7024251097676 L 318.61748089066 276.1272291830953 L 329.72997673646 275.74182462494036 L 340.84247258225 275.33546151075285 L 351.95496842805 274.9116329332048 L 363.06746427385 274.6403360690051 L 374.17996011964 274.18856275008034 L 385.29245596544 273.48528675876435 L 396.40495181123 272.7855038601205 L 407.51744765703 272.2487319528413 L 418.62994350282 271.68401530418527 L 429.74243934862 271.2287488925884 L 440.85493519442 270.91786364477156 L 451.96743104021 270.7606744745271 L 463.07992688601 270.59882784738653 L 474.1924227318 270.44862486248627 L 485.3049185776 270.2343818452642 L 496.4174144234 270.0736995823476 L 507.52991026919 269.9735642590808 L 518.64240611499 269.9083598625349 L 529.75490196078 262.38423824683355" class="highcharts-graph" stroke="#434348" stroke-width="2" stroke-linejoin="round" stroke-linecap="round"></path></g><g class="highcharts-markers highcharts-series-1 highcharts-line-series highcharts-color-1 " transform="translate(55,46) scale(1 1)" width="299" height="535" clip-path="none"></g><g class="highcharts-series highcharts-series-2 highcharts-line-series highcharts-color-2 " transform="translate(55,46) scale(1 1)" width="299" height="535" clip-path="url(#highcharts-b0lpd72-46)"><path fill="none" d="M 5.2450980392157 298.965069073279 L 7.4675972083749 298.8137017241547 L 9.6900963775341 298.7205525862321 L 11.912595546693 298.62158162718924 L 14.135094715852 298.470214278065 L 16.357593885012 298.3188469289407 L 18.580093054171 298.08015226301393 L 20.80259222333 297.85892306044764 L 23.025091392489 297.6318720367612 L 29.692588899967 297.0834564872416 L 40.805084745763 296.1368283731028 L 51.917580591559 295.1086947632816 L 63.030076437355 294.1795321125033 L 74.142572283151 293.2352327268125 L 85.255068128946 292.2629885997449 L 96.367563974742 291.2639640955246 L 107.48005982054 290.3219934382819 L 118.59255566633 289.24961398794744 L 129.70505151213 288.1551116173564 L 140.81754735793 287.04197941918085 L 151.93004320372 285.9509701412619 L 163.04253904952 284.72955207025126 L 174.15503489531 283.4068343117498 L 185.26753074111 282.00261105756596 L 196.38002658691 280.6146889025186 L 207.4925224327 279.1173165104121 L 218.6050182785 277.6711761441631 L 229.71751412429 276.29140453868393 L 240.83000997009 275.1328621357711 L 251.94250581589 273.70535159710664 L 263.05500166168 272.04613257785957 L 274.16749750748 270.263490950865 L 285.27999335327 268.5600260911047 L 296.39248919907 267.0253940438292 L 307.50498504487 265.4895976323296 L 318.61748089066 264.32989086519274 L 329.72997673646 263.2889492489072 L 340.84247258225 262.27595237399845 L 351.95496842805 261.2967220615867 L 363.06746427385 260.50146129657213 L 374.17996011964 259.81797949706475 L 385.29245596544 259.1880584518629 L 396.40495181123 258.6070407040704 L 407.51744765703 258.17855466962624 L 418.62994350282 257.7756846481108 L 429.74243934862 257.322746964962 L 440.85493519442 256.8581656395728 L 451.96743104021 256.4087210490961 L 463.07992688601 256.019823398269 L 474.1924227318 255.63325447589006 L 485.3049185776 255.30723249316083 L 496.4174144234 255.07203091990615 L 507.52991026919 254.94162212681445 L 518.64240611499 254.88456827983683 L 529.75490196078 253.47103011186073" class="highcharts-graph" stroke="#90ed7d" stroke-width="2" stroke-linejoin="round" stroke-linecap="round"></path></g><g class="highcharts-markers highcharts-series-2 highcharts-line-series highcharts-color-2 " transform="translate(55,46) scale(1 1)" width="299" height="535" clip-path="none"></g></g><text x="330" text-anchor="middle" class="highcharts-title" style="color:#333333;font-size:18px;fill:#333333;width:536px;" y="24"><tspan>FastQC: Adapter Content</tspan></text><g class="highcharts-axis-labels highcharts-xaxis-labels "><text x="58.0225988700565" style="color:#666666;cursor:default;font-size:11px;fill:#666666;width:124px;text-overflow:clip;" text-anchor="middle" transform="translate(0,0)" y="364" opacity="1"><tspan>0</tspan></text><text x="169.14755732801592" style="color:#666666;cursor:default;font-size:11px;fill:#666666;width:124px;text-overflow:clip;" text-anchor="middle" transform="translate(0,0)" y="364" opacity="1"><tspan>50</tspan></text><text x="280.2725157859754" style="color:#666666;cursor:default;font-size:11px;fill:#666666;width:124px;text-overflow:clip;" text-anchor="middle" transform="translate(0,0)" y="364" opacity="1"><tspan>100</tspan></text><text x="391.3974742439349" style="color:#666666;cursor:default;font-size:11px;fill:#666666;width:124px;text-overflow:clip;" text-anchor="middle" transform="translate(0,0)" y="364" opacity="1"><tspan>150</tspan></text><text x="502.52243270189433" style="color:#666666;cursor:default;font-size:11px;fill:#666666;width:124px;text-overflow:clip;" text-anchor="middle" transform="translate(0,0)" y="364" opacity="1"><tspan>200</tspan></text></g><g class="highcharts-axis-labels highcharts-yaxis-labels "><text x="40" style="color:#666666;cursor:default;font-size:11px;fill:#666666;width:188px;text-overflow:clip;" text-anchor="end" transform="translate(0,0)" y="350" opacity="1"><tspan>0</tspan></text><text x="40" style="color:#666666;cursor:default;font-size:11px;fill:#666666;width:188px;text-overflow:clip;" text-anchor="end" transform="translate(0,0)" y="300" opacity="1"><tspan>1</tspan></text><text x="40" style="color:#666666;cursor:default;font-size:11px;fill:#666666;width:188px;text-overflow:clip;" text-anchor="end" transform="translate(0,0)" y="250" opacity="1"><tspan>2</tspan></text><text x="40" style="color:#666666;cursor:default;font-size:11px;fill:#666666;width:188px;text-overflow:clip;" text-anchor="end" transform="translate(0,0)" y="200" opacity="1"><tspan>3</tspan></text><text x="40" style="color:#666666;cursor:default;font-size:11px;fill:#666666;width:188px;text-overflow:clip;" text-anchor="end" transform="translate(0,0)" y="150" opacity="1"><tspan>4</tspan></text><text x="40" style="color:#666666;cursor:default;font-size:11px;fill:#666666;width:188px;text-overflow:clip;" text-anchor="end" transform="translate(0,0)" y="100" opacity="1"><tspan>5</tspan></text><text x="40" style="color:#666666;cursor:default;font-size:11px;fill:#666666;width:188px;text-overflow:clip;" text-anchor="end" transform="translate(0,0)" y="51" opacity="1"><tspan>6</tspan></text></g><text x="590" class="highcharts-credits" text-anchor="end" style="cursor:pointer;color:#999999;font-size:9px;fill:#999999;" y="395"><tspan>Created with MultiQC</tspan></text></svg>