<svg xmlns:xlink="http://www.w3.org/1999/xlink" version="1.1" class="highcharts-root" style="font-family:&quot;lucida grande&quot;, &quot;lucida sans unicode&quot;, arial, helvetica, sans-serif;font-size:12px;" xmlns="http://www.w3.org/2000/svg" width="600" height="400"><desc>Created with Highcharts 5.0.6</desc><defs><clipPath id="highcharts-b0lpd72-38"><rect x="0" y="0" width="529" height="299" fill="none"></rect></clipPath></defs><rect fill="#ffffff" class="highcharts-background" x="0" y="0" width="600" height="400" rx="0" ry="0"></rect><rect fill="none" class="highcharts-plot-background" x="61" y="46" width="529" height="299"></rect><g class="highcharts-plot-bands-0"><path fill="#c3e6c3" class="highcharts-plot-band " d="M 61 178.5 L 590 178.5 590 46.5 61 46.5 z"></path><path fill="#e6dcc3" class="highcharts-plot-band " d="M 61 225.5 L 590 225.5 590 178.5 61 178.5 z"></path><path fill="#e6c3c3" class="highcharts-plot-band " d="M 61 345.5 L 590 345.5 590 225.5 61 225.5 z"></path></g><g class="highcharts-grid highcharts-xaxis-grid "><path fill="none" class="highcharts-grid-line" d="M 63.5 46 L 63.5 345" opacity="1"></path><path fill="none" class="highcharts-grid-line" d="M 167.5 46 L 167.5 345" opacity="1"></path><path fill="none" class="highcharts-grid-line" d="M 271.5 46 L 271.5 345" opacity="1"></path><path fill="none" class="highcharts-grid-line" d="M 376.5 46 L 376.5 345" opacity="1"></path><path fill="none" class="highcharts-grid-line" d="M 480.5 46 L 480.5 345" opacity="1"></path><path fill="none" class="highcharts-grid-line" d="M 584.5 46 L 584.5 345" opacity="1"></path></g><g class="highcharts-grid highcharts-yaxis-grid "><path fill="none" stroke="#e6e6e6" stroke-width="1" class="highcharts-grid-line" d="M 61 345.5 L 590 345.5" opacity="1"></path><path fill="none" stroke="#e6e6e6" stroke-width="1" class="highcharts-grid-line" d="M 61 285.5 L 590 285.5" opacity="1"></path><path fill="none" stroke="#e6e6e6" stroke-width="1" class="highcharts-grid-line" d="M 61 225.5 L 590 225.5" opacity="1"></path><path fill="none" stroke="#e6e6e6" stroke-width="1" class="highcharts-grid-line" d="M 61 166.5 L 590 166.5" opacity="1"></path><path fill="none" stroke="#e6e6e6" stroke-width="1" class="highcharts-grid-line" d="M 61 106.5 L 590 106.5" opacity="1"></path><path fill="none" stroke="#e6e6e6" stroke-width="1" class="highcharts-grid-line" d="M 61 45.5 L 590 45.5" opacity="1"></path></g><rect fill="none" class="highcharts-plot-border" x="61" y="46" width="529" height="299"></rect><g class="highcharts-axis highcharts-xaxis "><path fill="none" class="highcharts-tick" stroke="#ccd6eb" stroke-width="1" d="M 63.5 345 L 63.5 355" opacity="1"></path><path fill="none" class="highcharts-tick" stroke="#ccd6eb" stroke-width="1" d="M 167.5 345 L 167.5 355" opacity="1"></path><path fill="none" class="highcharts-tick" stroke="#ccd6eb" stroke-width="1" d="M 271.5 345 L 271.5 355" opacity="1"></path><path fill="none" class="highcharts-tick" stroke="#ccd6eb" stroke-width="1" d="M 376.5 345 L 376.5 355" opacity="1"></path><path fill="none" class="highcharts-tick" stroke="#ccd6eb" stroke-width="1" d="M 480.5 345 L 480.5 355" opacity="1"></path><path fill="none" class="highcharts-tick" stroke="#ccd6eb" stroke-width="1" d="M 584.5 345 L 584.5 355" opacity="1"></path><text x="325.5" text-anchor="middle" transform="translate(0,0)" class="highcharts-axis-title" style="color:#666666;fill:#666666;" y="383"><tspan>Position (bp)</tspan></text><path fill="none" class="highcharts-axis-line" stroke="#ccd6eb" stroke-width="1" d="M 61 345.5 L 590 345.5"></path></g><g class="highcharts-axis highcharts-yaxis "><text x="23.766666412353516" text-anchor="middle" transform="translate(0,0) rotate(270 23.766666412353516 195.5)" class="highcharts-axis-title" style="color:#666666;fill:#666666;" y="195.5"><tspan>Phred Score</tspan></text><path fill="none" class="highcharts-axis-line" d="M 61 46 L 61 345"></path></g><g class="highcharts-series-group"><g class="highcharts-series highcharts-series-0 highcharts-line-series highcharts-color-undefined " transform="translate(61,46) scale(1 1)" width="299" height="529" clip-path="url(#highcharts-b0lpd72-38)"><path fill="none" d="M 5.1862745098039 105.14340283302664 L 7.2691156783999 103.1047990186629 L 9.3519568469958 102.40690006133354 L 11.434798015592 102.32112367767749 L 13.517639184188 105.14462541546186 L 15.600480352784 89.84889656824089 L 17.68332152138 90.17994394696103 L 19.766162689976 89.75470183124503 L 21.849003858572 89.49585667805718 L 28.097527364359 86.18285808347207 L 38.511733207339 79.03455411665058 L 48.925939050319 77.65835245188234 L 59.340144893299 76.33783495739064 L 69.754350736278 76.018812532277 L 80.168556579258 77.29704530710768 L 90.582762422238 77.61924765395591 L 100.99696826522 77.09303027576325 L 111.4111741082 76.59895963742937 L 121.82537995118 76.68547824123931 L 132.23958579416 76.8502124042418 L 142.65379163714 77.57670623559696 L 153.06799748012 77.37061338773302 L 163.4822033231 77.58325770436826 L 173.89640916608 77.21962260291045 L 184.31061500906 77.14366627277369 L 194.72482085204 80.00739816919605 L 205.13902669502 78.33291218010893 L 215.553232538 80.11402316195847 L 225.96743838097 81.07551596894334 L 236.38164422395 78.8970451246376 L 246.79585006693 79.70293438619677 L 257.21005590991 79.53453436567659 L 267.62426175289 82.67868376233176 L 278.03846759587 80.69101593679608 L 288.45267343885 81.2630903376037 L 298.86687928183 81.21178417250727 L 309.28108512481 80.91239969356519 L 319.69529096779 82.48119182934275 L 330.10949681077 82.26802090866443 L 340.52370265375 82.77667182746211 L 350.93790849673 86.2654946052094 L 361.35211433971 83.64059959131637 L 371.76632018269 83.92556650631809 L 382.18052602567 84.52834995369554 L 392.59473186865 86.11403284657618 L 403.00893771163 87.64822051366838 L 413.42314355461 87.41569118697768 L 423.83734939759 92.9439040269429 L 434.25155524057 93.7118037474321 L 444.66576108355 91.0742792076312 L 455.07996692653 90.78708356667605 L 465.49417276951 91.441830569241 L 475.90837861249 92.11828009597988 L 486.32258445547 95.0260149255707 L 496.73679029845 91.18790594687428 L 507.15099614143 84.7346244869793 L 517.56520198441 83.99024488743146 L 523.8137254902 93.43539770342068" class="highcharts-graph" stroke="#5cb85c" stroke-width="2" stroke-linejoin="round" stroke-linecap="round"></path></g><g class="highcharts-markers highcharts-series-0 highcharts-line-series highcharts-color-undefined " transform="translate(61,46) scale(1 1)" width="299" height="529" clip-path="none"></g><g class="highcharts-series highcharts-series-1 highcharts-line-series highcharts-color-undefined " transform="translate(61,46) scale(1 1)" width="299" height="529" clip-path="url(#highcharts-b0lpd72-38)"><path fill="none" d="M 5.1862745098039 104.66221089706659 L 7.2691156783999 102.40983120231806 L 9.3519568469958 101.9942954373912 L 11.434798015592 81.71516787003947 L 13.517639184188 81.96639168699411 L 15.600480352784 81.95144565334593 L 17.68332152138 81.87651173202786 L 19.766162689976 81.96517538051518 L 21.849003858572 71.55904604285189 L 23.931845027167 71.56938526912123 L 28.097527364359 72.22089380893723 L 32.263209701551 63.71849159107191 L 36.428892038743 63.96478557747659 L 40.594574375935 64.1215362984511 L 44.760256713127 64.39659363464847 L 48.925939050319 64.82902164782953 L 53.091621387511 65.5477742938958 L 57.257303724703 66.66306402927722 L 61.422986061895 66.88314530023854 L 65.588668399087 66.2792112615331 L 69.754350736278 65.85726609930688 L 73.92003307347 65.98921723899846 L 78.085715410662 66.08816587453904 L 82.251397747854 66.49531549335049 L 86.417080085046 66.86134303829417 L 90.582762422238 67.89655580792791 L 94.74844475943 69.11267621330379 L 98.914127096622 70.11155476310358 L 103.07980943381 71.21435920956247 L 107.24549177101 73.14857092608182 L 111.4111741082 74.86236873690913 L 115.57685644539 76.61774718630335 L 119.74253878258 78.84907745988212 L 123.90822111977 81.19787659314912 L 128.07390345697 83.82781590003319 L 132.23958579416 86.28305894605975 L 136.40526813135 88.53932165337989 L 140.57095046854 91.1516873207963 L 144.73663280573 92.9692392179796 L 148.90231514292 94.41880170797148 L 153.06799748012 95.75785714934042 L 157.23367981731 97.05345064600868 L 161.3993621545 107.15229900228422 L 165.56504449169 99.13850405854174 L 169.73072682888 98.05539530563641 L 173.89640916608 98.33732656375057 L 178.06209150327 98.76995795972755 L 182.22777384046 99.03087659367301 L 186.39345617765 99.63975228060363 L 190.55913851484 99.34763704236582 L 194.72482085204 99.0804585601775 L 198.89050318923 99.21375856379385 L 203.05618552642 99.43634299952484 L 207.22186786361 99.53926413532332 L 211.3875502008 104.031390125717" class="highcharts-graph" stroke="#5cb85c" stroke-width="2" stroke-linejoin="round" stroke-linecap="round"></path></g><g class="highcharts-markers highcharts-series-1 highcharts-line-series highcharts-color-undefined " transform="translate(61,46) scale(1 1)" width="299" height="529" clip-path="none"></g><g class="highcharts-series highcharts-series-2 highcharts-line-series highcharts-color-undefined " transform="translate(61,46) scale(1 1)" width="299" height="529" clip-path="url(#highcharts-b0lpd72-38)"><path fill="none" d="M 5.1862745098039 115.06447765413708 L 7.2691156783999 112.51922170624141 L 9.3519568469958 112.36520426414322 L 11.434798015592 110.29202581851104 L 13.517639184188 110.73994509185431 L 15.600480352784 97.4422722392593 L 17.68332152138 96.10517924004787 L 19.766162689976 94.47947295189692 L 21.849003858572 94.36489252606674 L 28.097527364359 90.80393604953412 L 38.511733207339 83.99787831653964 L 48.925939050319 83.84325028184233 L 59.340144893299 82.19512154724976 L 69.754350736278 82.30348843686386 L 80.168556579258 83.26804203122211 L 90.582762422238 83.43216445853867 L 100.99696826522 83.4618104329769 L 111.4111741082 84.23620318475312 L 121.82537995118 83.56881232867201 L 132.23958579416 83.41672486538783 L 142.65379163714 83.92489493177803 L 153.06799748012 85.36383556590607 L 163.4822033231 85.80612645889028 L 173.89640916608 85.33373622441053 L 184.31061500906 86.65935676701775 L 194.72482085204 87.81027693729146 L 205.13902669502 87.04231649337137 L 215.553232538 88.37047180070897 L 225.96743838097 89.09092062593794 L 236.38164422395 91.27629882744574 L 246.79585006693 92.4043617519921 L 257.21005590991 91.93157835979656 L 267.62426175289 91.6900874022297 L 278.03846759587 91.81227541137397 L 288.45267343885 92.32342502552487 L 298.86687928183 94.17851529550259 L 309.28108512481 95.78710012102644 L 319.69529096779 96.20286823715324 L 330.10949681077 94.68858121811513 L 340.52370265375 94.39285697964726 L 350.93790849673 94.79616979177226 L 361.35211433971 96.17881311339596 L 371.76632018269 96.06936588818851 L 382.18052602567 96.76413436447592 L 392.59473186865 97.0409700341745 L 403.00893771163 98.90906446316038 L 413.42314355461 100.21172168909393 L 423.83734939759 100.3321426277056 L 434.25155524057 101.29102512757959 L 444.66576108355 101.96196829788445 L 455.07996692653 101.80466940256173 L 465.49417276951 102.06167894847104 L 475.90837861249 101.98670694054641 L 486.32258445547 102.14828310034463 L 496.73679029845 98.60385990680632 L 507.15099614143 89.79611213384248 L 517.56520198441 88.52414969198074 L 523.8137254902 97.24297399658664" class="highcharts-graph" stroke="#5cb85c" stroke-width="2" stroke-linejoin="round" stroke-linecap="round"></path></g><g class="highcharts-markers highcharts-series-2 highcharts-line-series highcharts-color-undefined " transform="translate(61,46) scale(1 1)" width="299" height="529" clip-path="none"></g><g class="highcharts-series highcharts-series-3 highcharts-line-series highcharts-color-undefined " transform="translate(61,46) scale(1 1)" width="299" height="529" clip-path="url(#highcharts-b0lpd72-38)"><path fill="none" d="M 5.1862745098039 106.74952947856522 L 7.2691156783999 104.79131083459353 L 9.3519568469958 103.67269525938357 L 11.434798015592 83.79094458515476 L 13.517639184188 83.81249892744586 L 15.600480352784 83.62093500540274 L 17.68332152138 83.4774915966814 L 19.766162689976 83.57977067183126 L 21.849003858572 73.73310876976328 L 23.931845027167 73.83083011220836 L 28.097527364359 74.98073917831866 L 32.263209701551 66.60213248479153 L 36.428892038743 67.23023364747132 L 40.594574375935 67.73913304802525 L 44.760256713127 68.06965470510008 L 48.925939050319 68.93819257441447 L 53.091621387511 69.63686933039591 L 57.257303724703 70.17923268133663 L 61.422986061895 70.60457285875418 L 65.588668399087 70.94245245082041 L 69.754350736278 71.2710584944075 L 73.92003307347 71.5645848333773 L 78.085715410662 71.67226919310346 L 82.251397747854 72.17170393352399 L 86.417080085046 71.50402014624126 L 90.582762422238 71.18861845848451 L 94.74844475943 71.9183855195383 L 98.914127096622 72.67893551178051 L 103.07980943381 74.0618670425159 L 107.24549177101 83.19732743517065 L 111.4111741082 81.84406262618515 L 115.57685644539 78.33343998849986 L 119.74253878258 79.36254211608278 L 123.90822111977 81.45089820627823 L 128.07390345697 84.15323966113078 L 132.23958579416 87.84003934317403 L 136.40526813135 89.13176054560697 L 140.57095046854 90.44604796171802 L 144.73663280573 91.90929636871252 L 148.90231514292 93.5547385380986 L 153.06799748012 95.05818146742351 L 157.23367981731 96.39101002019001 L 161.3993621545 97.38427560166892 L 165.56504449169 98.09199794531577 L 169.73072682888 98.89082833504506 L 173.89640916608 99.37221386842484 L 178.06209150327 100.02626182006193 L 182.22777384046 100.54150445623029 L 186.39345617765 100.6203455118416 L 190.55913851484 100.34829986806773 L 194.72482085204 99.65131885833233 L 198.89050318923 99.69276474284584 L 203.05618552642 99.64830086763095 L 207.22186786361 99.53048938272354 L 211.3875502008 102.20479160976538" class="highcharts-graph" stroke="#5cb85c" stroke-width="2" stroke-linejoin="round" stroke-linecap="round"></path></g><g class="highcharts-markers highcharts-series-3 highcharts-line-series highcharts-color-undefined " transform="translate(61,46) scale(1 1)" width="299" height="529" clip-path="none"></g></g><text x="330" text-anchor="middle" class="highcharts-title" style="color:#333333;font-size:18px;fill:#333333;width:536px;" y="24"><tspan>FastQC: Mean Quality Scores</tspan></text><g class="highcharts-axis-labels highcharts-xaxis-labels "><text x="64.10343334120797" style="color:#666666;cursor:default;font-size:11px;fill:#666666;width:96px;text-overflow:clip;" text-anchor="middle" transform="translate(0,0)" y="364" opacity="1"><tspan>0</tspan></text><text x="168.24549177100562" style="color:#666666;cursor:default;font-size:11px;fill:#666666;width:96px;text-overflow:clip;" text-anchor="middle" transform="translate(0,0)" y="364" opacity="1"><tspan>50</tspan></text><text x="272.3875502008032" style="color:#666666;cursor:default;font-size:11px;fill:#666666;width:96px;text-overflow:clip;" text-anchor="middle" transform="translate(0,0)" y="364" opacity="1"><tspan>100</tspan></text><text x="376.5296086306009" style="color:#666666;cursor:default;font-size:11px;fill:#666666;width:96px;text-overflow:clip;" text-anchor="middle" transform="translate(0,0)" y="364" opacity="1"><tspan>150</tspan></text><text x="480.6716670603985" style="color:#666666;cursor:default;font-size:11px;fill:#666666;width:96px;text-overflow:clip;" text-anchor="middle" transform="translate(0,0)" y="364" opacity="1"><tspan>200</tspan></text><text x="580.8249998092651" style="color:#666666;cursor:default;font-size:11px;fill:#666666;width:96px;text-overflow:clip;" text-anchor="middle" transform="translate(0,0)" y="364" opacity="1"><tspan>250</tspan></text></g><g class="highcharts-axis-labels highcharts-yaxis-labels "><text x="46" style="color:#666666;cursor:default;font-size:11px;fill:#666666;width:188px;text-overflow:clip;" text-anchor="end" transform="translate(0,0)" y="350" opacity="1"><tspan>0</tspan></text><text x="46" style="color:#666666;cursor:default;font-size:11px;fill:#666666;width:188px;text-overflow:clip;" text-anchor="end" transform="translate(0,0)" y="290" opacity="1"><tspan>10</tspan></text><text x="46" style="color:#666666;cursor:default;font-size:11px;fill:#666666;width:188px;text-overflow:clip;" text-anchor="end" transform="translate(0,0)" y="230" opacity="1"><tspan>20</tspan></text><text x="46" style="color:#666666;cursor:default;font-size:11px;fill:#666666;width:188px;text-overflow:clip;" text-anchor="end" transform="translate(0,0)" y="170" opacity="1"><tspan>30</tspan></text><text x="46" style="color:#666666;cursor:default;font-size:11px;fill:#666666;width:188px;text-overflow:clip;" text-anchor="end" transform="translate(0,0)" y="110" opacity="1"><tspan>40</tspan></text><text x="46" style="color:#666666;cursor:default;font-size:11px;fill:#666666;width:188px;text-overflow:clip;" text-anchor="end" transform="translate(0,0)" y="51" opacity="1"><tspan>50</tspan></text></g><text x="590" class="highcharts-credits" text-anchor="end" style="cursor:pointer;color:#999999;font-size:9px;fill:#999999;" y="395"><tspan>Created with MultiQC</tspan></text></svg>