<svg xmlns:xlink="http://www.w3.org/1999/xlink" version="1.1" class="highcharts-root" style="font-family:&quot;lucida grande&quot;, &quot;lucida sans unicode&quot;, arial, helvetica, sans-serif;font-size:12px;" xmlns="http://www.w3.org/2000/svg" width="600" height="400"><desc>Created with Highcharts 5.0.6</desc><defs><clipPath id="highcharts-4uqq5i4-40"><rect x="0" y="0" width="529" height="299" fill="none"></rect></clipPath></defs><rect fill="#ffffff" class="highcharts-background" x="0" y="0" width="600" height="400" rx="0" ry="0"></rect><rect fill="none" class="highcharts-plot-background" x="61" y="46" width="529" height="299"></rect><g class="highcharts-plot-bands-0"><path fill="#c3e6c3" class="highcharts-plot-band " d="M 61 178.5 L 590 178.5 590 46.5 61 46.5 z"></path><path fill="#e6dcc3" class="highcharts-plot-band " d="M 61 225.5 L 590 225.5 590 178.5 61 178.5 z"></path><path fill="#e6c3c3" class="highcharts-plot-band " d="M 61 345.5 L 590 345.5 590 225.5 61 225.5 z"></path></g><g class="highcharts-grid highcharts-xaxis-grid "><path fill="none" class="highcharts-grid-line" d="M 63.5 46 L 63.5 345" opacity="1"></path><path fill="none" class="highcharts-grid-line" d="M 167.5 46 L 167.5 345" opacity="1"></path><path fill="none" class="highcharts-grid-line" d="M 271.5 46 L 271.5 345" opacity="1"></path><path fill="none" class="highcharts-grid-line" d="M 376.5 46 L 376.5 345" opacity="1"></path><path fill="none" class="highcharts-grid-line" d="M 480.5 46 L 480.5 345" opacity="1"></path><path fill="none" class="highcharts-grid-line" d="M 584.5 46 L 584.5 345" opacity="1"></path></g><g class="highcharts-grid highcharts-yaxis-grid "><path fill="none" stroke="#e6e6e6" stroke-width="1" class="highcharts-grid-line" d="M 61 345.5 L 590 345.5" opacity="1"></path><path fill="none" stroke="#e6e6e6" stroke-width="1" class="highcharts-grid-line" d="M 61 285.5 L 590 285.5" opacity="1"></path><path fill="none" stroke="#e6e6e6" stroke-width="1" class="highcharts-grid-line" d="M 61 225.5 L 590 225.5" opacity="1"></path><path fill="none" stroke="#e6e6e6" stroke-width="1" class="highcharts-grid-line" d="M 61 166.5 L 590 166.5" opacity="1"></path><path fill="none" stroke="#e6e6e6" stroke-width="1" class="highcharts-grid-line" d="M 61 106.5 L 590 106.5" opacity="1"></path><path fill="none" stroke="#e6e6e6" stroke-width="1" class="highcharts-grid-line" d="M 61 45.5 L 590 45.5" opacity="1"></path></g><rect fill="none" class="highcharts-plot-border" x="61" y="46" width="529" height="299"></rect><g class="highcharts-axis highcharts-xaxis "><path fill="none" class="highcharts-tick" stroke="#ccd6eb" stroke-width="1" d="M 63.5 345 L 63.5 355" opacity="1"></path><path fill="none" class="highcharts-tick" stroke="#ccd6eb" stroke-width="1" d="M 167.5 345 L 167.5 355" opacity="1"></path><path fill="none" class="highcharts-tick" stroke="#ccd6eb" stroke-width="1" d="M 271.5 345 L 271.5 355" opacity="1"></path><path fill="none" class="highcharts-tick" stroke="#ccd6eb" stroke-width="1" d="M 376.5 345 L 376.5 355" opacity="1"></path><path fill="none" class="highcharts-tick" stroke="#ccd6eb" stroke-width="1" d="M 480.5 345 L 480.5 355" opacity="1"></path><path fill="none" class="highcharts-tick" stroke="#ccd6eb" stroke-width="1" d="M 584.5 345 L 584.5 355" opacity="1"></path><text x="325.5" text-anchor="middle" transform="translate(0,0)" class="highcharts-axis-title" style="color:#666666;fill:#666666;" y="383"><tspan>Position (bp)</tspan></text><path fill="none" class="highcharts-axis-line" stroke="#ccd6eb" stroke-width="1" d="M 61 345.5 L 590 345.5"></path></g><g class="highcharts-axis highcharts-yaxis "><text x="23.766666412353516" text-anchor="middle" transform="translate(0,0) rotate(270 23.766666412353516 195.5)" class="highcharts-axis-title" style="color:#666666;fill:#666666;" y="195.5"><tspan>Phred Score</tspan></text><path fill="none" class="highcharts-axis-line" d="M 61 46 L 61 345"></path></g><g class="highcharts-series-group"><g class="highcharts-series highcharts-series-0 highcharts-line-series highcharts-color-undefined " transform="translate(61,46) scale(1 1)" width="299" height="529" clip-path="url(#highcharts-4uqq5i4-40)"><path fill="none" d="M 5.1862745098039 105.42470900000001 L 7.2691156783999 103.27294951999997 L 9.3519568469958 102.62764373333331 L 11.434798015592 102.50811549333335 L 13.517639184188 105.33819036 L 15.600480352784 89.70680523999997 L 17.68332152138 89.88260926666666 L 19.766162689976 89.44788319999998 L 21.849003858572 89.08688255999999 L 28.097527364359 85.91307091466663 L 38.511733207339 79.08554943466666 L 48.925939050319 77.72219235733331 L 59.340144893299 76.37034239466664 L 69.754350736278 76.0734114746667 L 80.168556579258 77.34627121866669 L 90.582762422238 77.68637853599998 L 100.99696826522 77.13705653333335 L 111.4111741082 76.60531014933332 L 121.82537995118 76.663676544 L 132.23958579416 76.80461398133329 L 142.65379163714 77.5263186533333 L 153.06799748012 77.3247328533333 L 163.4822033231 77.60483286399995 L 173.89640916608 77.23630380266664 L 184.31061500906 77.17709303199996 L 194.72482085204 80.04623643466664 L 205.13902669502 78.40467939199999 L 215.553232538 80.23523553066667 L 225.96743838097 81.34768775466662 L 236.38164422395 79.29100549066663 L 246.79585006693 80.3457068613333 L 257.21005590991 80.37447783733333 L 267.62426175289 83.72517867999994 L 278.03846759587 82.27734652799998 L 288.45267343885 83.36532938933331 L 298.86687928183 83.93508784266666 L 309.28108512481 84.37873288 L 319.69529096779 86.89960586666663 L 330.10949681077 87.60711561333332 L 340.52370265375 89.20332272800002 L 350.93790849673 93.6376035573333 L 361.35211433971 92.46107363999997 L 371.76632018269 94.33217417866669 L 382.18052602567 96.59907257866666 L 392.59473186865 99.84267162133335 L 403.00893771163 103.40382062399999 L 413.42314355461 104.97501220266668 L 423.83734939759 112.2748261093333 L 434.25155524057 115.221154568 L 444.66576108355 115.40271613866665 L 455.07996692653 118.34531148266666 L 465.49417276951 121.74365777599996 L 475.90837861249 125.45490238666665 L 486.32258445547 131.100857992 L 496.73679029845 132.52441054666667 L 507.15099614143 134.83484494133333 L 517.56520198441 138.2244795706667 L 523.8137254902 156.62168964" class="highcharts-graph" stroke="#f0ad4e" stroke-width="2" stroke-linejoin="round" stroke-linecap="round"></path></g><g class="highcharts-markers highcharts-series-0 highcharts-line-series highcharts-color-undefined " transform="translate(61,46) scale(1 1)" width="299" height="529" clip-path="none"></g><g class="highcharts-series highcharts-series-1 highcharts-line-series highcharts-color-undefined " transform="translate(61,46) scale(1 1)" width="299" height="529" clip-path="url(#highcharts-4uqq5i4-40)"><path fill="none" d="M 5.1862745098039 105.42329772 L 7.2691156783999 103.657201596 L 9.3519568469958 103.60504403599998 L 11.434798015592 82.808914708 L 13.517639184188 83.15976489599998 L 15.600480352784 83.31880299599999 L 17.68332152138 83.19613047199996 L 19.766162689976 83.44476093200001 L 21.849003858572 73.13295896399998 L 23.931845027167 73.11441498399998 L 28.097527364359 73.45156319799997 L 32.263209701551 64.91699450599998 L 36.428892038743 65.12709821799999 L 40.594574375935 65.27036107799998 L 44.760256713127 65.595958922 L 48.925939050319 66.09975239399998 L 53.091621387511 66.9184425 L 57.257303724703 68.37032610199998 L 61.422986061895 68.838837574 L 65.588668399087 68.391244142 L 69.754350736278 68.14845016199999 L 73.92003307347 68.45149742599997 L 78.085715410662 68.697064332 L 82.251397747854 69.30502641399997 L 86.417080085046 69.87065129199996 L 90.582762422238 71.07645609999997 L 94.74844475943 72.49692915399999 L 98.914127096622 73.716795932 L 103.07980943381 75.05840115799998 L 107.24549177101 77.26392621999997 L 111.4111741082 79.23846481199999 L 115.57685644539 81.199181232 L 119.74253878258 83.711602884 L 123.90822111977 86.30966112600001 L 128.07390345697 89.20615844399995 L 132.23958579416 91.95155850399999 L 136.40526813135 94.47763129999998 L 140.57095046854 97.418261616 L 144.73663280573 99.59701182599997 L 148.90231514292 101.400724542 L 153.06799748012 103.11490469799998 L 157.23367981731 104.79720547399998 L 161.3993621545 115.26014715799997 L 165.56504449169 107.64578385599998 L 169.73072682888 106.956145738 L 173.89640916608 107.699707908 L 178.06209150327 108.70495906400001 L 182.22777384046 109.59975663 L 186.39345617765 111.02553633599999 L 190.55913851484 112.00122416599999 L 194.72482085204 113.28972639399998 L 198.89050318923 114.897266406 L 203.05618552642 116.77945525999999 L 207.22186786361 118.74448804399998 L 211.3875502008 125.55305531599998" class="highcharts-graph" stroke="#5cb85c" stroke-width="2" stroke-linejoin="round" stroke-linecap="round"></path></g><g class="highcharts-markers highcharts-series-1 highcharts-line-series highcharts-color-undefined " transform="translate(61,46) scale(1 1)" width="299" height="529" clip-path="none"></g><g class="highcharts-series highcharts-series-2 highcharts-line-series highcharts-color-undefined " transform="translate(61,46) scale(1 1)" width="299" height="529" clip-path="url(#highcharts-4uqq5i4-40)"><path fill="none" d="M 5.1862745098039 114.53027958666667 L 7.2691156783999 111.97689533333332 L 9.3519568469958 111.85682091999999 L 11.434798015592 109.78892894666666 L 13.517639184188 110.25552841333331 L 15.600480352784 96.73569723999998 L 17.68332152138 95.06695033333332 L 19.766162689976 93.46791029333332 L 21.849003858572 93.19409406666665 L 28.097527364359 89.73318182399998 L 38.511733207339 83.31099670399999 L 48.925939050319 83.23046205066663 L 59.340144893299 81.44614406933329 L 69.754350736278 81.46536139733337 L 80.168556579258 82.27992271199994 L 90.582762422238 82.33459904800003 L 100.99696826522 82.11941632266667 L 111.4111741082 82.78953831199999 L 121.82537995118 81.99610154666667 L 132.23958579416 81.67926998399997 L 142.65379163714 82.06068076266666 L 153.06799748012 83.37709643466667 L 163.4822033231 83.70500853866665 L 173.89640916608 83.18102020799998 L 184.31061500906 84.50645531466662 L 194.72482085204 85.59353798666666 L 205.13902669502 84.78335961333332 L 215.553232538 86.20740491999999 L 225.96743838097 87.06647577333328 L 236.38164422395 89.42130010666662 L 246.79585006693 90.97152979199998 L 257.21005590991 90.9262189333333 L 267.62426175289 91.46552882133335 L 278.03846759587 92.45504181333328 L 288.45267343885 94.42079937333332 L 298.86687928183 97.95207229599995 L 309.28108512481 101.16043398933334 L 319.69529096779 103.54280299999999 L 330.10949681077 104.22466731733331 L 340.52370265375 106.28207355999999 L 350.93790849673 109.41136849066666 L 361.35211433971 113.67568097599997 L 371.76632018269 116.17920000266662 L 382.18052602567 119.83275037066664 L 392.59473186865 123.25863575999998 L 403.00893771163 127.86387681599999 L 413.42314355461 132.0696714133333 L 423.83734939759 135.12806666666663 L 434.25155524057 139.605207352 L 444.66576108355 143.3910656186667 L 455.07996692653 147.2387857893333 L 465.49417276951 151.40962369866665 L 475.90837861249 155.46518315466668 L 486.32258445547 160.181538192 L 496.73679029845 163.48092664799998 L 507.15099614143 166.6387405973333 L 517.56520198441 170.42320831466665 L 523.8137254902 179.94996066666667" class="highcharts-graph" stroke="#d9534f" stroke-width="2" stroke-linejoin="round" stroke-linecap="round"></path></g><g class="highcharts-markers highcharts-series-2 highcharts-line-series highcharts-color-undefined " transform="translate(61,46) scale(1 1)" width="299" height="529" clip-path="none"></g><g class="highcharts-series highcharts-series-3 highcharts-line-series highcharts-color-undefined " transform="translate(61,46) scale(1 1)" width="299" height="529" clip-path="url(#highcharts-4uqq5i4-40)"><path fill="none" d="M 5.1862745098039 109.793850088 L 7.2691156783999 108.75471027199998 L 9.3519568469958 107.73085055199999 L 11.434798015592 87.63768936 L 13.517639184188 87.90019102799997 L 15.600480352784 87.979180848 L 17.68332152138 87.79486409199998 L 19.766162689976 88.06215932799998 L 21.849003858572 78.453159252 L 23.931845027167 78.63544818999998 L 28.097527364359 79.116085906 L 32.263209701551 70.68968225799998 L 36.428892038743 71.42452498999998 L 40.594574375935 72.02664580799998 L 44.760256713127 72.54448390799996 L 48.925939050319 73.73387481200001 L 53.091621387511 74.62366592199996 L 57.257303724703 75.47794480199997 L 61.422986061895 76.07900297399999 L 65.588668399087 76.572664532 L 69.754350736278 77.20184305599994 L 73.92003307347 77.94825708800002 L 78.085715410662 78.28418897 L 82.251397747854 79.04546688999997 L 86.417080085046 78.70809083799998 L 90.582762422238 78.62243690600002 L 94.74844475943 79.85960502 L 98.914127096622 80.89847513800001 L 103.07980943381 82.71463342999999 L 107.24549177101 92.31076873200001 L 111.4111741082 91.25555228399998 L 115.57685644539 87.96262760999997 L 119.74253878258 89.32236000999998 L 123.90822111977 91.85976490600001 L 128.07390345697 94.98680198800002 L 132.23958579416 99.05992769400001 L 136.40526813135 100.673859728 L 140.57095046854 102.18783965 L 144.73663280573 103.88827597199997 L 148.90231514292 105.86733424799999 L 153.06799748012 107.758926054 L 157.23367981731 109.53330986 L 161.3993621545 111.04231262799999 L 165.56504449169 112.309924922 L 169.73072682888 113.77821943799998 L 173.89640916608 114.99996273999997 L 178.06209150327 116.45035612599997 L 182.22777384046 117.90317380399998 L 186.39345617765 118.98738488000001 L 190.55913851484 120.42013188399997 L 194.72482085204 121.46540119999997 L 198.89050318923 123.05240948 L 203.05618552642 124.85208689199999 L 207.22186786361 126.764528566 L 211.3875502008 131.556085492" class="highcharts-graph" stroke="#5cb85c" stroke-width="2" stroke-linejoin="round" stroke-linecap="round"></path></g><g class="highcharts-markers highcharts-series-3 highcharts-line-series highcharts-color-undefined " transform="translate(61,46) scale(1 1)" width="299" height="529" clip-path="none"></g></g><text x="330" text-anchor="middle" class="highcharts-title" style="color:#333333;font-size:18px;fill:#333333;width:536px;" y="24"><tspan>FastQC: Mean Quality Scores</tspan></text><g class="highcharts-axis-labels highcharts-xaxis-labels "><text x="64.10343334120797" style="color:#666666;cursor:default;font-size:11px;fill:#666666;width:96px;text-overflow:clip;" text-anchor="middle" transform="translate(0,0)" y="364" opacity="1"><tspan>0</tspan></text><text x="168.24549177100562" style="color:#666666;cursor:default;font-size:11px;fill:#666666;width:96px;text-overflow:clip;" text-anchor="middle" transform="translate(0,0)" y="364" opacity="1"><tspan>50</tspan></text><text x="272.3875502008032" style="color:#666666;cursor:default;font-size:11px;fill:#666666;width:96px;text-overflow:clip;" text-anchor="middle" transform="translate(0,0)" y="364" opacity="1"><tspan>100</tspan></text><text x="376.5296086306009" style="color:#666666;cursor:default;font-size:11px;fill:#666666;width:96px;text-overflow:clip;" text-anchor="middle" transform="translate(0,0)" y="364" opacity="1"><tspan>150</tspan></text><text x="480.6716670603985" style="color:#666666;cursor:default;font-size:11px;fill:#666666;width:96px;text-overflow:clip;" text-anchor="middle" transform="translate(0,0)" y="364" opacity="1"><tspan>200</tspan></text><text x="580.8249998092651" style="color:#666666;cursor:default;font-size:11px;fill:#666666;width:96px;text-overflow:clip;" text-anchor="middle" transform="translate(0,0)" y="364" opacity="1"><tspan>250</tspan></text></g><g class="highcharts-axis-labels highcharts-yaxis-labels "><text x="46" style="color:#666666;cursor:default;font-size:11px;fill:#666666;width:188px;text-overflow:clip;" text-anchor="end" transform="translate(0,0)" y="350" opacity="1"><tspan>0</tspan></text><text x="46" style="color:#666666;cursor:default;font-size:11px;fill:#666666;width:188px;text-overflow:clip;" text-anchor="end" transform="translate(0,0)" y="290" opacity="1"><tspan>10</tspan></text><text x="46" style="color:#666666;cursor:default;font-size:11px;fill:#666666;width:188px;text-overflow:clip;" text-anchor="end" transform="translate(0,0)" y="230" opacity="1"><tspan>20</tspan></text><text x="46" style="color:#666666;cursor:default;font-size:11px;fill:#666666;width:188px;text-overflow:clip;" text-anchor="end" transform="translate(0,0)" y="170" opacity="1"><tspan>30</tspan></text><text x="46" style="color:#666666;cursor:default;font-size:11px;fill:#666666;width:188px;text-overflow:clip;" text-anchor="end" transform="translate(0,0)" y="110" opacity="1"><tspan>40</tspan></text><text x="46" style="color:#666666;cursor:default;font-size:11px;fill:#666666;width:188px;text-overflow:clip;" text-anchor="end" transform="translate(0,0)" y="51" opacity="1"><tspan>50</tspan></text></g><text x="590" class="highcharts-credits" text-anchor="end" style="cursor:pointer;color:#999999;font-size:9px;fill:#999999;" y="395"><tspan>Created with MultiQC</tspan></text></svg>